<svg width="28" height="28" viewBox="0 0 28 28" fill="none" xmlns="http://www.w3.org/2000/svg">
<path d="M10.6207 3.37936C10.6207 5.24271 12.1367 6.75867 14 6.75867C15.8634 6.75867 17.3793 5.24271 17.3793 3.37936C17.3793 1.516 15.8634 4.57764e-05 14 4.57764e-05C12.1367 4.57764e-05 10.6207 1.516 10.6207 3.37936Z" fill="#504D4D"/>
<path d="M10.6207 24.6207C10.6207 26.484 12.1367 28 14 28C15.8634 28 17.3793 26.484 17.3793 24.6207C17.3793 22.7573 15.8634 21.2414 14 21.2414C12.1367 21.2414 10.6207 22.7573 10.6207 24.6207Z" fill="#504D4D"/>
<path d="M10.6207 14C10.6207 15.8633 12.1367 17.3793 14 17.3793C15.8634 17.3793 17.3793 15.8633 17.3793 14C17.3793 12.1366 15.8634 10.6207 14 10.6207C12.1367 10.6207 10.6207 12.1366 10.6207 14Z" fill="#504D4D"/>
</svg>
