<svg width="49" height="49" viewBox="0 0 49 49" fill="none" xmlns="http://www.w3.org/2000/svg">
<path d="M24.5 49C38.031 49 49 38.031 49 24.5C49 10.969 38.031 0 24.5 0C10.969 0 0 10.969 0 24.5C0 38.031 10.969 49 24.5 49Z" fill="#FD8469"/>
<path d="M30.596 8.95117H14.1695C13.475 8.95117 12.9059 9.51062 12.9059 10.2148V38.8045C12.9059 39.499 13.4653 40.0681 14.1695 40.0681H34.8401C35.5346 40.0681 36.1037 39.5087 36.1037 38.8045V14.4492H31.8596C31.1651 14.4492 30.596 13.8898 30.596 13.1856V8.95117Z" fill="white"/>
<path d="M30.5961 8.95117V13.1953C30.5961 13.8898 31.1555 14.4588 31.8596 14.4588H36.1037L30.5961 8.95117Z" fill="#E6E9EE"/>
<path d="M19.2817 22.4744H16.2915C16.1854 22.4744 16.0986 22.3876 16.0986 22.2815V19.2913C16.0986 19.1852 16.1854 19.0984 16.2915 19.0984H19.2817C19.3878 19.0984 19.4746 19.1852 19.4746 19.2913V22.2815C19.4746 22.3876 19.3878 22.4744 19.2817 22.4744ZM16.4845 22.0982H19.0888V19.4939H16.4845V22.0982Z" fill="#E6E9EE"/>
<path d="M17.9892 21.6256C17.8734 21.6256 17.7577 21.5678 17.6805 21.4713L16.986 20.555C16.8606 20.3814 16.8895 20.1499 17.0632 20.0148C17.2368 19.8894 17.4683 19.9184 17.6033 20.092L17.9892 20.6032L20.1594 17.7288C20.2848 17.5648 20.526 17.5262 20.6996 17.6516C20.8636 17.777 20.9021 18.0182 20.7767 18.1918L18.2978 21.4713C18.2206 21.5678 18.1145 21.6256 17.9892 21.6256Z" fill="#FF7058"/>
<path d="M19.2817 26.8728H16.2915C16.1854 26.8728 16.0986 26.786 16.0986 26.6799V23.6897C16.0986 23.5836 16.1854 23.4968 16.2915 23.4968H19.2817C19.3878 23.4968 19.4746 23.5836 19.4746 23.6897V26.6799C19.4746 26.786 19.3878 26.8728 19.2817 26.8728ZM16.4845 26.487H19.0888V23.8827H16.4845V26.487Z" fill="#E6E9EE"/>
<path d="M17.9892 26.024C17.8734 26.024 17.7577 25.9661 17.6805 25.8696L16.986 24.9533C16.8606 24.7893 16.8895 24.5482 17.0632 24.4131C17.2368 24.2877 17.4683 24.3167 17.6033 24.4903L17.9892 25.0015L20.1594 22.1271C20.2848 21.9631 20.526 21.9245 20.6996 22.0499C20.8636 22.1753 20.9021 22.4165 20.7767 22.5901L18.2978 25.8696C18.2206 25.9661 18.1145 26.024 17.9892 26.024Z" fill="#84DBFF"/>
<path d="M19.2817 31.2712H16.2915C16.1854 31.2712 16.0986 31.1844 16.0986 31.0783V28.0882C16.0986 27.9821 16.1854 27.8953 16.2915 27.8953H19.2817C19.3878 27.8953 19.4746 27.9821 19.4746 28.0882V31.0783C19.4746 31.1844 19.3878 31.2712 19.2817 31.2712ZM16.4845 30.8854H19.0888V28.2811H16.4845V30.8854Z" fill="#E6E9EE"/>
<path d="M17.9892 30.4127C17.8734 30.4127 17.7577 30.3549 17.6805 30.2584L16.986 29.3421C16.8606 29.1781 16.8895 28.937 17.0632 28.8019C17.2368 28.6765 17.4683 28.7055 17.6033 28.8791L17.9892 29.3903L20.1594 26.5255C20.2848 26.3616 20.526 26.323 20.6996 26.4484C20.8636 26.5738 20.9021 26.8149 20.7767 26.9885L18.2978 30.2681C18.2206 30.3645 18.1145 30.4127 17.9892 30.4127Z" fill="#FFD05B"/>
<path d="M19.2817 35.6697H16.2915C16.1854 35.6697 16.0986 35.5829 16.0986 35.4768V32.4866C16.0986 32.3805 16.1854 32.2937 16.2915 32.2937H19.2817C19.3878 32.2937 19.4746 32.3805 19.4746 32.4866V35.4768C19.4746 35.5829 19.3878 35.6697 19.2817 35.6697ZM16.4845 35.2839H19.0888V32.6795H16.4845V35.2839Z" fill="#E6E9EE"/>
<path d="M17.9892 34.8112C17.8734 34.8112 17.7577 34.7533 17.6805 34.6569L16.986 33.7405C16.8606 33.5765 16.8895 33.3354 17.0632 33.2004C17.2368 33.075 17.4683 33.1039 17.6033 33.2775L17.9892 33.7887L20.1594 30.9143C20.2848 30.7504 20.526 30.7118 20.6996 30.8372C20.8636 30.9626 20.9021 31.2037 20.7767 31.3773L18.2978 34.6569C18.2206 34.7533 18.1145 34.8112 17.9892 34.8112Z" fill="#2C9984"/>
<path d="M33.3451 19.2528H23.4197V19.9473H33.3451V19.2528Z" fill="#E6E9EE"/>
<path d="M29.5447 20.8926H23.4197V21.5871H29.5447V20.8926Z" fill="#E6E9EE"/>
<path d="M33.3451 24.0178H23.4197V24.7123H33.3451V24.0178Z" fill="#E6E9EE"/>
<path d="M29.5447 25.6575H23.4197V26.352H29.5447V25.6575Z" fill="#E6E9EE"/>
<path d="M33.3451 28.7827H23.4197V29.4772H33.3451V28.7827Z" fill="#E6E9EE"/>
<path d="M29.5447 30.4225H23.4197V31.117H29.5447V30.4225Z" fill="#E6E9EE"/>
<path d="M33.3451 33.5477H23.4197V34.2422H33.3451V33.5477Z" fill="#E6E9EE"/>
<path d="M29.5447 35.1875H23.4197V35.882H29.5447V35.1875Z" fill="#E6E9EE"/>
</svg>
