<svg width="49" height="49" viewBox="0 0 49 49" fill="none" xmlns="http://www.w3.org/2000/svg">
<path d="M24.5 49C38.031 49 49 38.031 49 24.5C49 10.969 38.031 0 24.5 0C10.969 0 0 10.969 0 24.5C0 38.031 10.969 49 24.5 49Z" fill="#4AB8A1"/>
<path d="M48.2248 30.6384L41.3438 13.3984C41.3438 12.9773 40.9992 12.6328 40.5781 12.6328H40.1953V12.4556C40.0713 12.4307 39.9438 12.4043 39.8125 12.3763V12.2592V12.0632V11.8672C37.8984 11.4844 35.2364 10.7188 31.0078 10.7188C26.7793 10.7188 24.8828 11.4844 24.5 11.8672C24.4721 11.8389 24.4326 11.8082 24.3878 11.7765C24.376 11.768 24.3618 11.7592 24.348 11.7504C24.3086 11.7248 24.2642 11.698 24.2144 11.6708C24.1995 11.6628 24.1857 11.6547 24.1693 11.6463C23.9537 11.5334 23.6444 11.4105 23.2348 11.2914C23.2325 11.2911 23.231 11.2907 23.2294 11.2903C22.8068 11.1678 22.2739 11.051 21.622 10.9546C20.6757 10.8145 19.4817 10.7188 17.9922 10.7188C13.7636 10.7188 11.1016 11.4844 9.1875 11.8672V12.0632V12.2592V12.6328H8.42188C8.00078 12.6328 7.65625 12.9773 7.65625 13.3984V13.5944V13.7904V34.8359V35.0319V35.2279V35.6016V35.7976V35.9844L11.3998 45.1987C15.19 47.6027 19.68 49 24.5 49C35.912 49 45.4999 41.1987 48.2248 30.6384Z" fill="#43A691"/>
<path d="M40.5781 12.6328H8.42188C8.00078 12.6328 7.65625 12.9773 7.65625 13.3984V35.6016C7.65625 36.0227 8.00078 36.3672 8.42188 36.3672H21.8203C21.8203 37.2128 23.0204 37.8984 24.5 37.8984C25.9796 37.8984 27.1797 37.2128 27.1797 36.3672H40.5781C40.9992 36.3672 41.3438 36.0227 41.3438 35.6016V13.3984C41.3438 12.9773 40.9992 12.6328 40.5781 12.6328Z" fill="#CC584C"/>
<path d="M40.5781 12.6328H25.2656V35.2188H40.5781V12.6328Z" fill="#BF5347"/>
<path d="M40.5781 35.6016H27.1797C27.1797 36.4472 25.9796 37.1328 24.5 37.1328C23.0204 37.1328 21.8203 36.4472 21.8203 35.6016H8.42188C8.00078 35.6016 7.65625 35.257 7.65625 34.8359V35.6016C7.65625 36.0227 8.00078 36.3672 8.42188 36.3672H21.8203C21.8203 37.2128 23.0204 37.8984 24.5 37.8984C25.9796 37.8984 27.1797 37.2128 27.1797 36.3672H40.5781C40.9992 36.3672 41.3438 36.0227 41.3438 35.6016V34.8359C41.3438 35.257 40.9992 35.6016 40.5781 35.6016Z" fill="#994239"/>
<path d="M17.9922 10.7188C13.7636 10.7188 11.1016 11.4844 9.1875 11.8672V34.8359H24.5V11.8672C24.1172 11.4844 22.2207 10.7188 17.9922 10.7188Z" fill="#FFF8E6"/>
<path d="M24.5 34.8359C24.5 33.779 22.2207 32.9219 17.9922 32.9219C13.7636 32.9219 9.95312 34.0703 9.1875 34.8359H24.5Z" fill="#E6DBC3"/>
<path d="M31.0078 10.7188C35.2364 10.7188 37.8984 11.4844 39.8125 11.8672V34.8359H24.5V11.8672C24.8828 11.4844 26.7793 10.7188 31.0078 10.7188Z" fill="#FFF8E6"/>
<path d="M24.5 34.8359C24.5 33.779 26.7793 32.9219 31.0078 32.9219C35.2364 32.9219 39.0469 34.0703 39.8125 34.8359H24.5Z" fill="#E6DBC3"/>
<path d="M24.5 32.5391V11.8672C24.2527 11.6192 23.3627 11.2115 21.622 10.9546L24.5 32.5391Z" fill="#F2E7CE"/>
<path d="M25.2656 34.8359H9.57031V35.2188H25.2656V34.8359Z" fill="#BF5347"/>
<path d="M38.2812 15.6953C34.1978 15.6953 30.1147 15.6953 26.0312 15.6953C26.0312 14.6235 26.0312 14.0875 26.0312 13.0157C30.5033 12.3239 33.8092 12.3235 38.2812 13.0157C38.2812 14.0875 38.2812 14.6235 38.2812 15.6953Z" fill="#F2E7CE"/>
<path d="M38.2812 17.6094H27.9453V18.375H38.2812V17.6094Z" fill="#F2E7CE"/>
<path d="M38.2812 19.1406H26.0312V19.9062H38.2812V19.1406Z" fill="#F2E7CE"/>
<path d="M38.2812 20.6719H26.0312V21.4375H38.2812V20.6719Z" fill="#F2E7CE"/>
<path d="M38.2812 22.2031H26.0312V22.9688H38.2812V22.2031Z" fill="#F2E7CE"/>
<path d="M38.2812 23.7344H26.0312V24.5H38.2812V23.7344Z" fill="#F2E7CE"/>
<path d="M38.2812 25.2656H26.0312V26.0312H38.2812V25.2656Z" fill="#F2E7CE"/>
<path d="M38.2812 26.7969H26.0312V27.5625H38.2812V26.7969Z" fill="#F2E7CE"/>
<path d="M38.2812 28.3281H26.0312V29.0938H38.2812V28.3281Z" fill="#F2E7CE"/>
<path d="M36.3672 29.8594H26.0312V30.625H36.3672V29.8594Z" fill="#F2E7CE"/>
<path d="M23.3516 13.3984H13.0156V14.1641H23.3516V13.3984Z" fill="#F2E7CE"/>
<path d="M23.3516 14.9297H11.1016V15.6953H23.3516V14.9297Z" fill="#F2E7CE"/>
<path d="M23.3516 16.4609H11.1016V17.2266H23.3516V16.4609Z" fill="#F2E7CE"/>
<path d="M23.3516 17.9922H11.1016V18.7578H23.3516V17.9922Z" fill="#F2E7CE"/>
<path d="M23.3516 19.5234H11.1016V20.2891H23.3516V19.5234Z" fill="#F2E7CE"/>
<path d="M23.3516 21.0547H11.1016V21.8203H23.3516V21.0547Z" fill="#F2E7CE"/>
<path d="M23.3516 22.5859H11.1016V23.3516H23.3516V22.5859Z" fill="#F2E7CE"/>
<path d="M23.3516 24.1172H11.1016V24.8828H23.3516V24.1172Z" fill="#F2E7CE"/>
<path d="M21.4375 25.6484H11.1016V26.4141H21.4375V25.6484Z" fill="#F2E7CE"/>
</svg>
